<?xml version="1.0" encoding="utf-8"?>
<!-- Generator: Adobe Illustrator 18.1.1, SVG Export Plug-In . SVG Version: 6.00 Build 0)  -->
<svg version="1.1"
	 id="svg2" inkscape:version="0.48.3.1 r9886" sodipodi:docname="fotoradar4a.svg" xmlns:ns1="http://sozi.baierouge.fr" xmlns:inkscape="http://www.inkscape.org/namespaces/inkscape" xmlns:sodipodi="http://sodipodi.sourceforge.net/DTD/sodipodi-0.dtd" xmlns:cc="http://creativecommons.org/ns#" xmlns:rdf="http://www.w3.org/1999/02/22-rdf-syntax-ns#" xmlns:svg="http://www.w3.org/2000/svg" xmlns:dc="http://purl.org/dc/elements/1.1/"
	 xmlns="http://www.w3.org/2000/svg" xmlns:xlink="http://www.w3.org/1999/xlink" x="0px" y="0px" viewBox="264 32 372 784"
	 enable-background="new 264 32 372 784" xml:space="preserve">
<g>
	
		<radialGradient id="path4936_1_" cx="578.6324" cy="427.3601" r="18.11" gradientTransform="matrix(6.4477 0 0 -6.0754 -3419.6941 3341.8638)" gradientUnits="userSpaceOnUse">
		<stop  offset="0" style="stop-color:#A5A5A5"/>
		<stop  offset="1" style="stop-color:#DFDFDF"/>
	</radialGradient>
	
		<path id="path4936" sodipodi:nodetypes="ccccc" inkscape:connector-curvature="0" fill="url(#path4936_1_)" stroke="#EFEFEF" stroke-width="0.5" stroke-linecap="round" stroke-linejoin="round" d="
		M370.5,637.1v103.4c-24.1,23.7-23.8,56.5-50.4,56.6c-63.1-9.6-53.5-214.7,0-218.6C342.4,575.8,350.1,620.6,370.5,637.1L370.5,637.1
		z"/>
	
		<radialGradient id="path4908-6_1_" cx="349.8927" cy="383.9131" r="20.875" gradientTransform="matrix(1.022 0 0 -2.4994 12.8658 1647.9316)" gradientUnits="userSpaceOnUse">
		<stop  offset="0" style="stop-color:#7E7E7E"/>
		<stop  offset="0.5" style="stop-color:#D6D6D6"/>
		<stop  offset="1" style="stop-color:#B0B0B0"/>
	</radialGradient>
	
		<path id="path4908-6" sodipodi:type="arc" sodipodi:ry="21.494007" sodipodi:rx="20.634247" sodipodi:cy="496.09726" sodipodi:cx="633.64337" fill="url(#path4908-6_1_)" stroke="#707070" stroke-width="0.505" stroke-linecap="round" stroke-linejoin="round" d="
		M391.5,688.4c0,28.5-9.4,51.6-21.1,51.6c-11.6,0-21.1-23.1-21.1-51.6s9.4-51.6,21.1-51.6C382.1,636.8,391.5,659.9,391.5,688.4z"/>
	
		<linearGradient id="path3025_1_" gradientUnits="userSpaceOnUse" x1="234.6534" y1="634.6966" x2="244.2234" y2="634.6966" gradientTransform="matrix(1.5659 0.5196 0.5196 -1.5659 -232.2186 1284.1647)">
		<stop  offset="0" style="stop-color:#B7B7B7"/>
		<stop  offset="0.5" style="stop-color:#E7E7E7"/>
		<stop  offset="1" style="stop-color:#B7B7B7"/>
	</linearGradient>
	<path id="path3025" sodipodi:nodetypes="ssassas" inkscape:connector-curvature="0" fill="url(#path3025_1_)" d="M364.2,674.7
		c66.1-184.9,123.4-383.2,179.1-544.3c5.2-14.9,14.8-12.4,21.7-8.9c6.8,3.5,11.1,5.2,5.4,22.2C511,320.9,438.5,549.9,396.5,684.5
		c-5.5,17.5-15.6,24.4-26,20.7C360.8,701.7,358.4,690.8,364.2,674.7L364.2,674.7z"/>
	<path id="path3869-6" inkscape:connector-curvature="0" fill="#CECECE" d="M560.9,119.6c-4.3-1.4-8.9-1.6-12.8,2.3
		c3.6-0.4,7.4,1,10.6,2.7c6.8,3.4,11.1,5.1,5.5,21.8C506,320,435.1,544.5,394,676.5c-5.3,17.1-15.4,23.9-25.8,20.2
		c-3.1-1.1-5.4-3-7-5.5c0.3,7.1,3.5,11.9,9.4,14c10.4,3.8,20.5-3.2,26-20.7c42-134.6,114.4-363.7,173.9-541
		c5.7-17,1.4-18.7-5.4-22.2C563.8,120.8,562.4,120.1,560.9,119.6L560.9,119.6z"/>
	<radialGradient id="path3935_1_" cx="467.0942" cy="412.452" r="220.8217" gradientUnits="userSpaceOnUse">
		<stop  offset="0" style="stop-color:#4D4D4D"/>
		<stop  offset="1" style="stop-color:#1A1A1A"/>
	</radialGradient>
	
		<path id="path3935" sodipodi:nodetypes="ssassas" inkscape:connector-curvature="0" opacity="0.2" fill="url(#path3935_1_)" enable-background="new    " d="
		M364.2,674.7c66.1-184.9,123.4-383.2,179.1-544.3c5.2-14.9,14.8-12.4,21.7-8.9c6.8,3.5,11.1,5.2,5.4,22.2
		C511,320.9,438.5,549.9,396.5,684.5c-5.5,17.5-15.6,24.4-26,20.7C360.8,701.7,358.4,690.8,364.2,674.7L364.2,674.7z"/>
	
		<radialGradient id="path2159_1_" cx="-1037.991" cy="-217.2064" r="223.36" gradientTransform="matrix(0.1894 6.286602e-02 6.286602e-02 -0.1894 766.3143 105.3941)" gradientUnits="userSpaceOnUse">
		<stop  offset="0" style="stop-color:#4D4D4D"/>
		<stop  offset="1" style="stop-color:#1A1A1A"/>
	</radialGradient>
	
		<path id="path2159" sodipodi:type="arc" sodipodi:ry="223.36462" sodipodi:rx="223.36462" sodipodi:cy="508.19199" sodipodi:cx="340.29376" fill="url(#path2159_1_)" d="
		M607.7,116.6c-7.8,23.4-33,36-56.4,28.3c-23.4-7.8-36-33-28.3-56.4s33-36,56.4-28.3S615.5,93.2,607.7,116.6z"/>
	
		<linearGradient id="path4110_1_" gradientUnits="userSpaceOnUse" x1="-872.1541" y1="20.364" x2="-855.3441" y2="-191.216" gradientTransform="matrix(0.1894 6.286602e-02 6.286789e-02 -0.1895 746.3423 101.9255)">
		<stop  offset="0" style="stop-color:#FFFFFF"/>
		<stop  offset="1" style="stop-color:#FFFFFF;stop-opacity:0"/>
	</linearGradient>
	
		<path id="path4110" sodipodi:type="arc" sodipodi:ry="53.967293" sodipodi:rx="119.92731" sodipodi:cy="356.78375" sodipodi:cx="440.73288" fill="url(#path4110_1_)" d="
		M597.4,82.2c-2.2,6.8-14.2,8.9-26.8,4.7c-12.5-4.2-20.9-13-18.6-19.8c2.2-6.8,14.2-8.9,26.8-4.7C591.3,66.6,599.6,75.4,597.4,82.2z
		"/>
	
		<linearGradient id="path4112_1_" gradientUnits="userSpaceOnUse" x1="-1899.3446" y1="-672.793" x2="-1899.3446" y2="-871.8231" gradientTransform="matrix(0.1052 3.492556e-02 3.492473e-02 -0.1052 779.3998 126.4487)">
		<stop  offset="0" style="stop-color:#1A1A1A"/>
		<stop  offset="1" style="stop-color:#000000;stop-opacity:0"/>
	</linearGradient>
	
		<path id="path4112" sodipodi:type="arc" sodipodi:ry="53.967293" sodipodi:rx="119.92731" sodipodi:cy="356.78375" sodipodi:cx="440.73288" fill="url(#path4112_1_)" d="
		M569.6,141.4c-1,3-8.7,3.1-17.2,0.2c-8.5-2.8-14.6-7.5-13.6-10.5c1-3,8.7-3.1,17.2-0.2C564.5,133.7,570.6,138.4,569.6,141.4z"/>
</g>
</svg>
